<svg width="607" height="101" viewBox="0 0 607 101" fill="none" xmlns="http://www.w3.org/2000/svg">
<path d="M56.5 15.25C58.4167 15.25 59.375 16.0833 59.375 17.75C58.9583 28.9167 58.4583 34.5 57.875 34.5C57.875 35.6667 56.375 36.4167 53.375 36.75H52.875C50.7917 36.75 49.75 35.9583 49.75 34.375L50.125 32.875C50.125 32.375 48.2083 30.5 44.375 27.25C41.375 25.25 37.2917 24.25 32.125 24.25C27.625 24.25 23.0833 26.9167 18.5 32.25C10.8333 39.75 7 46.625 7 52.875V53L8.375 59.625C8.375 61.875 9.875 66.5833 12.875 73.75C12.875 74.25 14.2083 76.0833 16.875 79.25C17.125 80.75 18 82.1667 19.5 83.5C21.9167 85.6667 28.375 86.75 38.875 86.75C42.125 86.75 45.8333 84.875 50 81.125C51.25 80.375 51.875 76.2083 51.875 68.625V67.125C51.875 66.2917 51 65.875 49.25 65.875C43.6667 65.5417 40.875 64.9167 40.875 64L40.75 63C41.25 59.6667 42.2083 58 43.625 58L53.375 58.125L65.25 57C66.25 57.25 66.75 57.625 66.75 58.125L66.375 62.25V63.25C65.7917 65.5 64.75 66.625 63.25 66.625L59.625 66.375V66.875C60.2083 66.875 60.5 71.9167 60.5 82C60.5 93.3333 60.875 99.375 61.625 100.125H61.375L60.875 100.25H55.375C54.875 100.25 54.125 100.458 53.125 100.875C51.7083 100.875 51 99.5833 51 97C51 95.1667 50.5833 94.25 49.75 94.25C49.3333 94.25 47.7917 95.2917 45.125 97.375C42.5417 98.375 40.375 98.875 38.625 98.875H37.75C32.4167 98.875 26.75 97.5 20.75 94.75C19.3333 93.3333 17.5 92.125 15.25 91.125C12.8333 89.2083 10.875 87.0833 9.375 84.75C6.29167 80.1667 4.75 77.375 4.75 76.375C3.08333 73.5417 1.75 69.4583 0.75 64.125L1 52.5H1.125L2.25 53.625C2.41667 53.625 2.58333 53.125 2.75 52.125C2.58333 51.125 2.33333 50.625 2 50.625C1.75 50.625 1.33333 50.7917 0.75 51.125H0.625C0.708333 47.4583 1.54167 43.7083 3.125 39.875C5.45833 36.9583 8.25 32.9167 11.5 27.75C12.0833 27.3333 12.5417 26.5833 12.875 25.5C13.9583 24.25 17.625 21.9583 23.875 18.625C25.2083 18.0417 27.9167 17.4583 32 16.875H32.125C35.2083 16.875 41.0833 18.0833 49.75 20.5H50C50.4167 20.0833 50.625 19.5833 50.625 19V18.375L50.375 17.5C51.125 16 53.1667 15.25 56.5 15.25ZM12.125 37.125H12.5C15.6667 33.2917 17.25 31.1667 17.25 30.75H16.875C13.9583 33.4167 12.375 35.5417 12.125 37.125ZM10.625 32.25H10.875C11.375 31.9167 11.7083 31.625 11.875 31.375V31H11.75C11 31.3333 10.625 31.75 10.625 32.25ZM7.375 38.75L7 39.25V39.5H7.25L7.75 39.125V38.75H7.375ZM64.5 58.875L64.125 59.25V59.625L64.5 59.875L64.875 59.375V59.25L64.625 58.875H64.5ZM51.125 83.625L50.75 84L51 84.375H51.375L51.875 84L51.5 83.625H51.125ZM40.875 88.375C40.875 88.625 41 88.75 41.25 88.75C41.75 88.75 42.3333 88.375 43 87.625V87.5H42.75C41.8333 87.5 41.2083 87.7917 40.875 88.375ZM20.875 88H20.375V88.25C20.375 88.75 21.4167 89.1667 23.5 89.5H25L25.25 89.125C23.25 88.375 21.7917 88 20.875 88ZM52.875 94.25L52.375 94.625V95L52.625 95.25C53.125 95.0833 53.375 94.9167 53.375 94.75V94.5L52.875 94.25ZM42.375 96.625V97H42.5C43.4167 97 44.4167 96.5833 45.5 95.75L45.375 95.25H44.75C43.8333 95.25 43.0417 95.7083 42.375 96.625ZM115.625 36.75C118.875 36.75 121.625 39.0417 123.875 43.625C124.292 43.625 124.875 44.1667 125.625 45.25L127.25 54.5C126.667 55.5 124.458 56 120.625 56H119.375C116.292 55.5 114.75 54.4583 114.75 52.875C114.75 51.7083 113.792 50.0833 111.875 48C111.625 47.5833 109.833 47.375 106.5 47.375C103.333 47.375 99.5 48.2083 95 49.875C91.8333 53.2083 89.75 55.7917 88.75 57.625C89.3333 71.875 89.5417 80.7917 89.375 84.375C89.375 85.125 89.875 85.5 90.875 85.5H93.875C95.2083 85.5833 95.875 85.8333 95.875 86.25V86.375L96.375 88L96.125 95L95.375 96L89.5 96.625H89L86.5 97.375C76.9167 97.0417 72.125 96.6667 72.125 96.25C70.4583 96.25 69.625 95.5 69.625 94C69.4583 92.5 69.375 90.9583 69.375 89.375C69.375 87.7917 71 86.75 74.25 86.25C74.25 85.5833 75.375 85.25 77.625 85.25L78 85.125V84.875L77.25 50.625C77.25 48.5417 76.7083 47.5 75.625 47.5H74.875C73.875 47.5 72.2083 47.9583 69.875 48.875L69.625 48.625V48.375C69.625 48.2083 69.9583 48 70.625 47.75V47.5C69.7917 47.5 69.375 45.1667 69.375 40.5C69.2083 40.5 69.0833 39.75 69 38.25C72.3333 35.6667 75.8333 34.375 79.5 34.375H82.625C83.875 34.375 86 34.7917 89 35.625V36C88.25 37.1667 87.875 38 87.875 38.5V39.375C94.625 36.375 103.875 35.5 115.625 36.75ZM82.875 55.625V56.25C83.2917 57.0833 83.5 57.9583 83.5 58.875C83.4167 59.2083 83.2917 60.9167 83.125 64L83.375 69H83.5C83.75 69 84.0833 65.125 84.5 57.375C84.6667 57.375 84.75 56.5417 84.75 54.875C84.6667 54.125 84.4583 53.75 84.125 53.75H83.875C83.2083 54.1667 82.875 54.7917 82.875 55.625ZM75.375 93.375L73.75 93.5V93.75C73.75 94.1667 74.9583 94.375 77.375 94.375H81.125L82 94.25C82 93.8333 79.7917 93.5417 75.375 93.375ZM97 42.125V42.375C97.75 42.375 98.75 41.1667 100 38.75V38.125H99.875C97.7083 38.7917 96.75 40.125 97 42.125ZM113.125 46.125H113.75C114.167 46.0417 114.958 45.0417 116.125 43.125V43C116.125 42.8333 115.958 42.75 115.625 42.75C114.208 43.4167 113.5 44.2917 113.5 45.375C113.417 45.375 113.292 45.625 113.125 46.125ZM84.375 49H83.875L83.25 51.625C83.25 52.0417 83.5 52.4583 84 52.875H84.125C84.375 52.875 84.5833 52.2917 84.75 51.125L84.375 49ZM101.75 39.375L102.375 41.875H103.375V39.25L103 38.875H102.625C102.042 38.9583 101.75 39.125 101.75 39.375ZM74.5 91.375L74.25 91.625L74.375 91.875H81.25V91.5L77 91.375H74.5ZM72.25 39.25C72.9167 39.9167 73.625 40.25 74.375 40.25L74.5 40V39.125L74 38.5C72.8333 38.6667 72.25 38.9167 72.25 39.25ZM84.875 92.25L85.25 92.625H87.125L87.625 92.125C87.625 91.9583 87.4167 91.7917 87 91.625C85.5833 91.7917 84.875 92 84.875 92.25ZM120.875 42.625H120.5V42.875C121.167 43.5417 121.75 43.875 122.25 43.875H122.625V43.625C121.958 42.9583 121.375 42.625 120.875 42.625ZM78 36.75H77.625V37.25L78.375 38.125H79.5V37.875L78 36.75ZM74.25 44.125V44.375H74.625C75.5417 44.375 76.0417 44.2083 76.125 43.875L75.875 43.5H75.625C74.875 43.5 74.4167 43.7083 74.25 44.125ZM106.25 38.25L104.75 38.375V38.5L105 38.875H106.25C106.833 38.875 107.167 38.7083 107.25 38.375L107 38.25H106.25ZM86.5 78.5L86 78.875V79.875H86.5L87 79.5V78.75L86.75 78.5H86.5ZM71.5 92.125L71 91.625L70.75 92.125V92.625L71 93H71.5V92.125ZM89 44.875L88.5 45V45.375L89 45.75H89.375L89.75 45.375V45L89 44.875ZM108.75 38.125V38.375H109.625L110.125 38L109.75 37.625C109.083 37.7917 108.75 37.9583 108.75 38.125ZM117 38.125L116.75 38.375V38.5L117 38.875H117.5L117.75 38.5V38.375L117.5 38.125H117ZM86.625 36.875L86 37.125V37.625H86.625L87 37.125L86.625 36.875ZM86.25 39.125L85.75 39.5V39.75L86 40L86.625 39.5V39.125H86.25ZM116.625 49.5V49.75H116.875L117.375 49.375V49H117.25C116.833 49.25 116.625 49.4167 116.625 49.5ZM112.375 38.5L111.875 38.875V39H112.5L112.75 38.75V38.5H112.375ZM86.5 81.25H86.25V81.75H86.5V81.25ZM161.5 32.25C165 32.25 169.25 33.75 174.25 36.75C178.5 39.9167 180.625 42.0833 180.625 43.25C183.958 50.25 185.625 54.4583 185.625 55.875L185.75 56.875C184.5 59.7917 183.875 61.7917 183.875 62.875L183.125 63H172.5C171.5 63 170.292 63.125 168.875 63.375C156.875 62.375 148.458 61.875 143.625 61.875H141C140 63.375 139.5 64.4583 139.5 65.125C140.083 66.0417 140.375 67.5 140.375 69.5C140.375 72.6667 140.875 74.5417 141.875 75.125L142 75.75V75.875L141.25 75.5V75.875L142.375 77.125C142.375 78.2083 143.125 79.5833 144.625 81.25C147.375 86.0833 150.375 89.0833 153.625 90.25C156.375 91.1667 159.5 91.625 163 91.625C163.583 91.625 164.792 91.0833 166.625 90C168.125 89.6667 171.292 86.9583 176.125 81.875V81.5C176.125 81.3333 175.542 81.1667 174.375 81L174.125 80.375C176.042 76.7083 178.333 74.2917 181 73.125C181.75 73.875 183.292 75.0417 185.625 76.625C187.458 79.4583 189.917 82.7917 193 86.625V87.125C190.333 90.625 188.417 92.375 187.25 92.375H186.75C186.75 90.5417 185.625 89.5 183.375 89.25C182.958 89.25 181.125 90.625 177.875 93.375C175.958 94.875 172.667 96.2917 168 97.625C162.583 98.7083 158.75 99.25 156.5 99.25L149.375 96.75C145.375 96.75 141.708 94.5833 138.375 90.25C136.958 88.75 135.792 86.9583 134.875 84.875C134.875 84.2083 133.958 80.75 132.125 74.5C131.542 72.0833 131.25 69.75 131.25 67.5V67.375C131.25 56.2917 134.583 46.5833 141.25 38.25C142.083 36.1667 144 34.625 147 33.625C149 33.0417 151.417 32.5833 154.25 32.25C155 31.9167 157.417 31.9167 161.5 32.25ZM150 34.875V35H150.25C151.583 35 154.083 34.5417 157.75 33.625C158.5 33.5417 158.875 33.3333 158.875 33L158.5 32.625H158.375C155.958 32.625 153.25 33.2917 150.25 34.625L150 34.875ZM145 37V37.125L145.375 37.375H145.5C147.167 36.9583 148 36.5417 148 36.125V35.375L147.5 34.875H147.25C145.75 35.375 145 36.0833 145 37ZM164.25 35.75H160.5V36C160.5 36.3333 162.208 36.5833 165.625 36.75H165.75V36.25C165.75 36.0833 165.25 35.9167 164.25 35.75ZM155.375 37.625V37.75C155.375 38.0833 157.083 38.5 160.5 39L160.75 38.875V38.375C160.083 37.4583 158.958 37 157.375 37H157C155.917 37.0833 155.375 37.2917 155.375 37.625ZM163 38.375V38.5C167.75 41.25 170.292 42.625 170.625 42.625H170.75L172 42.125L172.75 42.375L172.875 42.125V42C172.542 41.75 171.833 41.5 170.75 41.25L168.25 40.125C167.583 38.7083 166.25 38 164.25 38H163.875C163.292 38.0833 163 38.2083 163 38.375ZM148.125 42C148.958 41.3333 150.625 40.625 153.125 39.875V39.625L153 39.375H151.75C149.333 40.0417 148.125 40.9167 148.125 42ZM141.5 50.25V50.625C141.5 51.5417 149.083 52.5833 164.25 53.75L165.5 54.125L167.125 54C170.458 55.0833 172.708 55.625 173.875 55.625C173.875 55.875 174.125 56.0833 174.625 56.25C175.125 55.5 175.375 54.7917 175.375 54.125V51.75C175.375 50.6667 173.292 48.25 169.125 44.5C167.208 42.5833 165.042 41.5 162.625 41.25L158.375 40.5C151.458 41.9167 146.917 43.625 144.75 45.625C143.833 47.375 142.75 48.9167 141.5 50.25ZM142.875 42.75V43H143.125C144.208 42.75 144.75 42.4583 144.75 42.125V42H144.125C143.708 42 143.292 42.25 142.875 42.75ZM172.75 44.5C172.917 45.1667 173.292 45.5 173.875 45.5H174.125L174.375 45.125V44.375L173.875 43.75C173.125 43.75 172.75 44 172.75 44.5ZM140.5 45.125L140.25 45.5V45.625H140.5L141 45.25V45.125H140.5ZM175.875 46.125H175.375C176.292 48.875 176.958 50.375 177.375 50.625H177.875L178.25 50.375C177.583 47.7083 176.875 46.375 176.125 46.375L175.875 46.125ZM141.625 48.375C142.125 48.2917 142.375 47.9583 142.375 47.375V47.25C141.875 47.4167 141.625 47.7917 141.625 48.375ZM180.125 51.75L179.75 52V52.875L180.125 53.375C180.458 53.2917 180.625 53 180.625 52.5V52L180.5 51.75H180.125ZM140.25 53.5V54L140.5 54.25H140.75C141.333 54 141.833 53.5417 142.25 52.875V52.5H141.625C141.125 52.5 140.667 52.8333 140.25 53.5ZM135.125 52.75C134.458 53.4167 133.875 55.0833 133.375 57.75H133.625C134.125 57.75 134.875 56.2917 135.875 53.375C135.708 52.9583 135.458 52.75 135.125 52.75ZM147.875 54.25V54.625C149.458 55.7083 152.333 56.25 156.5 56.25H157.625L159.25 56.125V55.625C155.833 54.875 152.042 54.4167 147.875 54.25ZM170.75 57.5H170.375V57.875H170.75V57.5ZM146.625 58.5V58.75C148.292 59.1667 152.708 59.5833 159.875 60V60.125V60.25L157.25 60.625C157.25 60.875 158.333 61 160.5 61C164 61 165.75 60.8333 165.75 60.5C165.75 59.6667 159.375 59 146.625 58.5ZM134 59.375H133.375V60.125C133.375 60.625 133.5 60.875 133.75 60.875C134.167 60.875 134.417 60.4583 134.5 59.625L134 59.375ZM144.125 59.625L143.5 59.75V60.5H144.125V60V59.75V59.625ZM140.125 60.625V60.75H140.25L142.375 60.5V60.25L142 59.75H141.625C140.875 59.75 140.375 60.0417 140.125 60.625ZM170.5 60.875C170.5 61.2083 171.25 61.375 172.75 61.375L173.875 61.25V61C173.875 60.6667 173.083 60.5 171.5 60.5C170.833 60.6667 170.5 60.7917 170.5 60.875ZM133.375 64.125V64.5V64.625C133.292 64.875 133.25 65.4583 133.25 66.375V66.875C133.25 68.375 133.667 69.7083 134.5 70.875H134.625C134.625 66.875 134.208 64.625 133.375 64.125ZM135.625 75H135.25V75.25L135.625 75.5H135.875V75.25L135.625 75ZM136.5 77.125L136.375 77.25V77.5C136.708 78.8333 137.208 79.5 137.875 79.5V79.375V79.125C137.875 78.4583 137.417 77.7917 136.5 77.125ZM177.25 78.25L177.5 78.625H178.125C178.625 78.625 178.917 78.4583 179 78.125L178.5 77.625H178.375C177.792 77.625 177.417 77.8333 177.25 78.25ZM174.375 85.5L174.625 85.625H174.75C175.667 85.625 176.25 85.0833 176.5 84V83.75C175.583 83.75 174.875 84.3333 174.375 85.5ZM183.125 85.25L183.25 85.375H183.625C184.125 85.0417 184.375 84.5833 184.375 84H184C183.417 84.3333 183.125 84.75 183.125 85.25ZM187.5 84H187.375V84.25C187.625 85.25 188 85.75 188.5 85.75H188.625L188.875 85.5V85.375C188.708 84.4583 188.25 84 187.5 84ZM180.25 86.625L180.625 86.875C181.875 86.4583 182.5 85.9167 182.5 85.25V85H182.375C181.208 85 180.5 85.5417 180.25 86.625ZM170.5 89.375H170.75C171.417 89.125 171.792 88.7083 171.875 88.125L171.75 88C170.917 88.5 170.5 88.9583 170.5 89.375ZM177.875 90H178.375C179.208 89.25 179.625 88.7083 179.625 88.375H179.5C178.417 88.7083 177.875 89.25 177.875 90ZM142.375 91.125H142V91.625C142.167 92.0417 142.875 92.5 144.125 93L144.625 93.375C143.708 91.9583 142.958 91.2083 142.375 91.125ZM151.125 91.625H151V91.75C151 92.0833 151.875 92.4583 153.625 92.875L153.75 92.75V92.5C152.667 91.9167 151.792 91.625 151.125 91.625ZM158.5 93H158.125V93.375H158.5V93ZM171.5 94.875C172.333 94.875 173 94.25 173.5 93H173.125C172.042 93.5833 171.5 94.2083 171.5 94.875ZM162.75 96.125L160.125 95.875H159.625C158.875 95.875 158.458 96.0417 158.375 96.375V96.625L158.875 97H161.125C163.708 97 166.75 96.5417 170.25 95.625C170.083 95.125 169.583 94.875 168.75 94.875H168.125C166.125 94.875 164.333 95.2917 162.75 96.125ZM226.125 32.25C229.625 32.25 233.875 33.75 238.875 36.75C243.125 39.9167 245.25 42.0833 245.25 43.25C248.583 50.25 250.25 54.4583 250.25 55.875L250.375 56.875C249.125 59.7917 248.5 61.7917 248.5 62.875L247.75 63H237.125C236.125 63 234.917 63.125 233.5 63.375C221.5 62.375 213.083 61.875 208.25 61.875H205.625C204.625 63.375 204.125 64.4583 204.125 65.125C204.708 66.0417 205 67.5 205 69.5C205 72.6667 205.5 74.5417 206.5 75.125L206.625 75.75V75.875L205.875 75.5V75.875L207 77.125C207 78.2083 207.75 79.5833 209.25 81.25C212 86.0833 215 89.0833 218.25 90.25C221 91.1667 224.125 91.625 227.625 91.625C228.208 91.625 229.417 91.0833 231.25 90C232.75 89.6667 235.917 86.9583 240.75 81.875V81.5C240.75 81.3333 240.167 81.1667 239 81L238.75 80.375C240.667 76.7083 242.958 74.2917 245.625 73.125C246.375 73.875 247.917 75.0417 250.25 76.625C252.083 79.4583 254.542 82.7917 257.625 86.625V87.125C254.958 90.625 253.042 92.375 251.875 92.375H251.375C251.375 90.5417 250.25 89.5 248 89.25C247.583 89.25 245.75 90.625 242.5 93.375C240.583 94.875 237.292 96.2917 232.625 97.625C227.208 98.7083 223.375 99.25 221.125 99.25L214 96.75C210 96.75 206.333 94.5833 203 90.25C201.583 88.75 200.417 86.9583 199.5 84.875C199.5 84.2083 198.583 80.75 196.75 74.5C196.167 72.0833 195.875 69.75 195.875 67.5V67.375C195.875 56.2917 199.208 46.5833 205.875 38.25C206.708 36.1667 208.625 34.625 211.625 33.625C213.625 33.0417 216.042 32.5833 218.875 32.25C219.625 31.9167 222.042 31.9167 226.125 32.25ZM214.625 34.875V35H214.875C216.208 35 218.708 34.5417 222.375 33.625C223.125 33.5417 223.5 33.3333 223.5 33L223.125 32.625H223C220.583 32.625 217.875 33.2917 214.875 34.625L214.625 34.875ZM209.625 37V37.125L210 37.375H210.125C211.792 36.9583 212.625 36.5417 212.625 36.125V35.375L212.125 34.875H211.875C210.375 35.375 209.625 36.0833 209.625 37ZM228.875 35.75H225.125V36C225.125 36.3333 226.833 36.5833 230.25 36.75H230.375V36.25C230.375 36.0833 229.875 35.9167 228.875 35.75ZM220 37.625V37.75C220 38.0833 221.708 38.5 225.125 39L225.375 38.875V38.375C224.708 37.4583 223.583 37 222 37H221.625C220.542 37.0833 220 37.2917 220 37.625ZM227.625 38.375V38.5C232.375 41.25 234.917 42.625 235.25 42.625H235.375L236.625 42.125L237.375 42.375L237.5 42.125V42C237.167 41.75 236.458 41.5 235.375 41.25L232.875 40.125C232.208 38.7083 230.875 38 228.875 38H228.5C227.917 38.0833 227.625 38.2083 227.625 38.375ZM212.75 42C213.583 41.3333 215.25 40.625 217.75 39.875V39.625L217.625 39.375H216.375C213.958 40.0417 212.75 40.9167 212.75 42ZM206.125 50.25V50.625C206.125 51.5417 213.708 52.5833 228.875 53.75L230.125 54.125L231.75 54C235.083 55.0833 237.333 55.625 238.5 55.625C238.5 55.875 238.75 56.0833 239.25 56.25C239.75 55.5 240 54.7917 240 54.125V51.75C240 50.6667 237.917 48.25 233.75 44.5C231.833 42.5833 229.667 41.5 227.25 41.25L223 40.5C216.083 41.9167 211.542 43.625 209.375 45.625C208.458 47.375 207.375 48.9167 206.125 50.25ZM207.5 42.75V43H207.75C208.833 42.75 209.375 42.4583 209.375 42.125V42H208.75C208.333 42 207.917 42.25 207.5 42.75ZM237.375 44.5C237.542 45.1667 237.917 45.5 238.5 45.5H238.75L239 45.125V44.375L238.5 43.75C237.75 43.75 237.375 44 237.375 44.5ZM205.125 45.125L204.875 45.5V45.625H205.125L205.625 45.25V45.125H205.125ZM240.5 46.125H240C240.917 48.875 241.583 50.375 242 50.625H242.5L242.875 50.375C242.208 47.7083 241.5 46.375 240.75 46.375L240.5 46.125ZM206.25 48.375C206.75 48.2917 207 47.9583 207 47.375V47.25C206.5 47.4167 206.25 47.7917 206.25 48.375ZM244.75 51.75L244.375 52V52.875L244.75 53.375C245.083 53.2917 245.25 53 245.25 52.5V52L245.125 51.75H244.75ZM204.875 53.5V54L205.125 54.25H205.375C205.958 54 206.458 53.5417 206.875 52.875V52.5H206.25C205.75 52.5 205.292 52.8333 204.875 53.5ZM199.75 52.75C199.083 53.4167 198.5 55.0833 198 57.75H198.25C198.75 57.75 199.5 56.2917 200.5 53.375C200.333 52.9583 200.083 52.75 199.75 52.75ZM212.5 54.25V54.625C214.083 55.7083 216.958 56.25 221.125 56.25H222.25L223.875 56.125V55.625C220.458 54.875 216.667 54.4167 212.5 54.25ZM235.375 57.5H235V57.875H235.375V57.5ZM211.25 58.5V58.75C212.917 59.1667 217.333 59.5833 224.5 60V60.125V60.25L221.875 60.625C221.875 60.875 222.958 61 225.125 61C228.625 61 230.375 60.8333 230.375 60.5C230.375 59.6667 224 59 211.25 58.5ZM198.625 59.375H198V60.125C198 60.625 198.125 60.875 198.375 60.875C198.792 60.875 199.042 60.4583 199.125 59.625L198.625 59.375ZM208.75 59.625L208.125 59.75V60.5H208.75V60V59.75V59.625ZM204.75 60.625V60.75H204.875L207 60.5V60.25L206.625 59.75H206.25C205.5 59.75 205 60.0417 204.75 60.625ZM235.125 60.875C235.125 61.2083 235.875 61.375 237.375 61.375L238.5 61.25V61C238.5 60.6667 237.708 60.5 236.125 60.5C235.458 60.6667 235.125 60.7917 235.125 60.875ZM198 64.125V64.5V64.625C197.917 64.875 197.875 65.4583 197.875 66.375V66.875C197.875 68.375 198.292 69.7083 199.125 70.875H199.25C199.25 66.875 198.833 64.625 198 64.125ZM200.25 75H199.875V75.25L200.25 75.5H200.5V75.25L200.25 75ZM201.125 77.125L201 77.25V77.5C201.333 78.8333 201.833 79.5 202.5 79.5V79.375V79.125C202.5 78.4583 202.042 77.7917 201.125 77.125ZM241.875 78.25L242.125 78.625H242.75C243.25 78.625 243.542 78.4583 243.625 78.125L243.125 77.625H243C242.417 77.625 242.042 77.8333 241.875 78.25ZM239 85.5L239.25 85.625H239.375C240.292 85.625 240.875 85.0833 241.125 84V83.75C240.208 83.75 239.5 84.3333 239 85.5ZM247.75 85.25L247.875 85.375H248.25C248.75 85.0417 249 84.5833 249 84H248.625C248.042 84.3333 247.75 84.75 247.75 85.25ZM252.125 84H252V84.25C252.25 85.25 252.625 85.75 253.125 85.75H253.25L253.5 85.5V85.375C253.333 84.4583 252.875 84 252.125 84ZM244.875 86.625L245.25 86.875C246.5 86.4583 247.125 85.9167 247.125 85.25V85H247C245.833 85 245.125 85.5417 244.875 86.625ZM235.125 89.375H235.375C236.042 89.125 236.417 88.7083 236.5 88.125L236.375 88C235.542 88.5 235.125 88.9583 235.125 89.375ZM242.5 90H243C243.833 89.25 244.25 88.7083 244.25 88.375H244.125C243.042 88.7083 242.5 89.25 242.5 90ZM207 91.125H206.625V91.625C206.792 92.0417 207.5 92.5 208.75 93L209.25 93.375C208.333 91.9583 207.583 91.2083 207 91.125ZM215.75 91.625H215.625V91.75C215.625 92.0833 216.5 92.4583 218.25 92.875L218.375 92.75V92.5C217.292 91.9167 216.417 91.625 215.75 91.625ZM223.125 93H222.75V93.375H223.125V93ZM236.125 94.875C236.958 94.875 237.625 94.25 238.125 93H237.75C236.667 93.5833 236.125 94.2083 236.125 94.875ZM227.375 96.125L224.75 95.875H224.25C223.5 95.875 223.083 96.0417 223 96.375V96.625L223.5 97H225.75C228.333 97 231.375 96.5417 234.875 95.625C234.708 95.125 234.208 94.875 233.375 94.875H232.75C230.75 94.875 228.958 95.2917 227.375 96.125ZM260.125 32L260.375 31.75C262.292 32.0833 264.292 32.25 266.375 32.25H276.625L277 32.625C276.5 34.125 276.25 35.2917 276.25 36.125V38.25C276.583 40.5833 277.25 41.75 278.25 41.75C278.75 40.8333 280.417 39.9583 283.25 39.125C290 36.2083 295.5 34.75 299.75 34.75C302.583 34.75 305.625 36 308.875 38.5C311.292 39.4167 313.625 41.375 315.875 44.375C319.292 49.7917 321 56.1667 321 63.5V64.5L320.125 73.5L321 80L319.75 85.875V86.125V87.125L324.5 87.375H326.625C328.042 87.375 328.875 87.5 329.125 87.75C328.792 93.8333 328.167 96.875 327.25 96.875C325.583 97.875 323.792 98.375 321.875 98.375H319.25C315.25 98.375 311.042 98.9167 306.625 100C303.708 99.5833 302.25 98.125 302.25 95.625L302.125 91.125C302.125 88.375 302.833 86.375 304.25 85.125C305 81.0417 305.875 77.3333 306.875 74L307.625 62.875C307.875 62.875 308 61.9583 308 60.125C308 57.875 306.208 54.6667 302.625 50.5C299.875 49.3333 298.292 48.75 297.875 48.75C293.042 48.75 288.708 50.7917 284.875 54.875C284.542 54.875 282.5 56.9167 278.75 61C277.583 61.9167 277 64.7083 277 69.375C277.167 77.7917 277.458 82 277.875 82C281.208 82.5833 282.875 83.2083 282.875 83.875V84.375L280.125 84.25L278.125 84.375V84.875C278.125 85.2083 279.708 85.625 282.875 86.125C283.458 86.7083 283.75 87.6667 283.75 89V89.25C283.75 91.25 283.333 93.375 282.5 95.625L268 95.75C266.583 95.75 265.542 95.0417 264.875 93.625C264.542 92.0417 264.167 88.9583 263.75 84.375C263.75 83.9583 265 83.5 267.5 83L268.125 82.125V82C268.125 81.5 267.792 80.7917 267.125 79.875V76V68.875L267.625 57.375C267.625 49.5417 267.292 45.625 266.625 45.625H266L260.125 46.375C259.542 46.375 258.75 45.875 257.75 44.875V44.375C258.167 43.7083 258.375 43 258.375 42.25L258.125 37.625L260.125 32ZM271 34.25L260.75 35.875V36.125C260.75 36.375 261.375 36.5417 262.625 36.625C268.042 36.625 270.75 36.25 270.75 35.5L271.25 34.75V34.5H271V34.25ZM295.875 36.625V36.75C296.458 36.75 297.458 37.25 298.875 38.25L300.25 38.625L304.25 38.5L304.375 38.25V38.125C304.292 37.625 303.833 37.375 303 37.375H302.5L301.25 37.625C299.417 36.5417 298.083 36 297.25 36C296.5 36 296.042 36.2083 295.875 36.625ZM287.375 38.875V39L287.625 39.375C291.542 38.375 293.5 37.625 293.5 37.125H293.25C291.417 37.125 289.458 37.7083 287.375 38.875ZM263.25 39L263.625 39.375H263.875C264.958 39.2917 265.5 39.0417 265.5 38.625L264.875 38.5C263.792 38.5 263.25 38.6667 263.25 39ZM264.375 41.5V41.75L266.75 41.625H267.125C267.958 41.625 268.458 41.8333 268.625 42.25V42.625C268.208 43.0417 268 43.4583 268 43.875C268.417 44.2083 268.917 44.375 269.5 44.375C269.75 44.375 269.875 44.2083 269.875 43.875L270 39.75L269.875 39.375H269.5C269 39.7083 267.333 40.375 264.5 41.375L264.375 41.5ZM285.125 40.125L285.25 40.25V40.375C286 40.125 286.375 39.9167 286.375 39.75V39.5H286.125C285.458 39.6667 285.125 39.875 285.125 40.125ZM259.875 40.25V40.375C259.875 40.625 260.083 40.8333 260.5 41C261.167 41 261.917 40.625 262.75 39.875V39.75H260.75C260.167 39.8333 259.875 40 259.875 40.25ZM303 42.25C303 42.5833 303.75 42.8333 305.25 43C305.583 42.75 305.75 42.4167 305.75 42C305.75 41.5833 305.083 41.25 303.75 41C303.25 41.3333 303 41.75 303 42.25ZM277.75 43.25V43.75C278.917 43.75 280.167 43 281.5 41.5V41.375L281.375 41.25H281.25C280.25 41.25 279.083 41.9167 277.75 43.25ZM307.75 41.5L307.375 42C307.542 42.4167 307.875 42.625 308.375 42.625H309L309.625 42.125V42C309.542 41.6667 309.125 41.5 308.375 41.5H307.75ZM293.875 42.75V43H294.5C295.75 42.8333 296.375 42.5833 296.375 42.25V42H295.5C294.417 42.0833 293.875 42.3333 293.875 42.75ZM273.375 42.125H272.75L272.5 42.875V45.125C272.5 46.125 272.333 46.7917 272 47.125V47.75L272.5 49.5V50.5C272.5 51.1667 272.708 51.625 273.125 51.875C273.208 51.875 273.458 50.9167 273.875 49C275.042 48.0833 275.625 47.375 275.625 46.875C275.625 46.4583 275.167 45.5417 274.25 44.125C274 42.7917 273.708 42.125 273.375 42.125ZM260.875 44.125V44.375H262.125L262.625 43.875V43.75L262 43.5C261.25 43.75 260.875 43.9583 260.875 44.125ZM305.625 44.5L304.875 44.125L304.625 44.375V44.5L305.25 44.875H305.375L305.625 44.5ZM296 45.375L296.25 45.625H296.375C298.208 45.625 299.125 45.4583 299.125 45.125L298.125 44.875C296.708 45.0417 296 45.2083 296 45.375ZM277.875 50.25V50.625C280.042 50.375 283.042 48.5833 286.875 45.25V45.125H286.125C285.792 45.125 284.792 45.7083 283.125 46.875C279.625 47.9583 277.875 49.0833 277.875 50.25ZM307.75 45.375H307.625V45.75C307.625 46 308.167 47.1667 309.25 49.25C309.25 49.9167 309.417 50.25 309.75 50.25L310.25 49.75V49.25C310.25 47.9167 309.417 46.625 307.75 45.375ZM268.875 46.875L269.125 47.25H269.375L269.75 45.625H269.375C269.125 45.625 268.958 46.0417 268.875 46.875ZM300.375 47.75V48.125H303.5L304 47.75V47.25L303.375 46.875H302.75C301.167 47.125 300.375 47.4167 300.375 47.75ZM288 49.75C289.833 49.4167 290.75 48.9583 290.75 48.375L290.375 48.125H290C288.75 48.125 288.083 48.6667 288 49.75ZM284 51.25V51.5H284.375C285.708 50.4167 286.375 49.5 286.375 48.75H286.125V48.5C285.458 48.5 284.75 49.4167 284 51.25ZM274.375 50L274.625 50.75C274.625 51.4167 274.25 52.0833 273.5 52.75C273.917 53.1667 274.125 53.5833 274.125 54C274.125 58.1667 274.417 60.25 275 60.25H275.125C275.792 58.75 276.125 56.7917 276.125 54.375C276.042 51.2917 275.667 49.6667 275 49.5H274.75C274.5 49.5 274.375 49.6667 274.375 50ZM309.625 51.625V52C310.625 55.75 311.25 57.7083 311.5 57.875L311.75 57V55.875C311.167 53.0417 310.458 51.625 309.625 51.625ZM315.25 51.875H315.125C315.292 56.2917 315.708 58.5 316.375 58.5H316.625C316.208 54.0833 315.75 51.875 315.25 51.875ZM282.5 52.125L281.75 53.125V53.375L281.875 53.625H282.5L282.875 52.125H282.5ZM279 53.375L278.75 53.625L279 54H279.5V53.625L279.25 53.375H279ZM314.375 68.125V68.25L314.75 69.75H315.375C315.292 68.6667 314.958 68.125 314.375 68.125ZM309.625 77.125L309.75 77.25H309.875C310.125 77.25 310.25 76.8333 310.25 76V74.5C309.917 74.5 309.708 75.375 309.625 77.125ZM308.875 79.125C309.375 79.7083 309.625 80.5 309.625 81.5H309.875L310.25 80V77.875C309.333 77.875 308.875 78.2917 308.875 79.125ZM314.375 78H314.125V78.625H314.375V78ZM317.25 78.625L317 81.125V84.25H317.125C318.208 82.9167 318.75 81.6667 318.75 80.5V80.375C318.75 79.2083 318.25 78.625 317.25 78.625ZM314 84.375V84.625H314.125L314.625 83.25V83H314.375C314.125 83 314 83.4583 314 84.375ZM265.75 84.875L265.5 85.375V85.5C265.667 87 266.208 87.75 267.125 87.75H267.875L268.25 87.375V87.125C267.5 86.2083 267.125 85.4583 267.125 84.875H265.75ZM314.375 86.625H313.875V87.125L314.375 87.625L314.75 87.375V87.125L314.375 86.625ZM321.125 89.5V89.875C324.875 89.875 326.75 89.5833 326.75 89V88.75H325C322.417 88.8333 321.125 89.0833 321.125 89.5ZM271 90.75C271 91.1667 272.083 91.375 274.25 91.375C278.417 91.375 280.5 91.1667 280.5 90.75C280.5 90.25 279.083 90 276.25 90C273.083 90 271.333 90.25 271 90.75ZM304.875 91.125H304.5V91.875L304.875 92.25H305.25L305.375 91.875V91.75L304.875 91.125ZM322.25 92.125V92.5C322.417 92.9167 322.792 93.125 323.375 93.125C324.708 93.125 325.5 92.8333 325.75 92.25V91.875C325.583 91.375 325.125 91.125 324.375 91.125H323.75C322.917 91.125 322.417 91.4583 322.25 92.125ZM307.625 94.375C307.875 95.0417 308.292 95.375 308.875 95.375C313.375 95.2917 315.625 95 315.625 94.5C315.042 93.75 314 93.375 312.5 93.375C309.25 93.4583 307.625 93.7917 307.625 94.375ZM304.5 96.75L304 97.25V97.5C304 98.0833 305.125 98.375 307.375 98.375H308L309 98.125V98C308.167 97.1667 306.833 96.75 305 96.75H304.5ZM341.25 17L346.125 16.375C350.708 17.2083 353 18.0417 353 18.875C354.083 19.375 355.083 20.4583 356 22.125C358.167 23.7917 360.667 28.25 363.5 35.5L367.375 42.625C368.875 48.0417 370 50.75 370.75 50.75C371.75 50.75 373.417 48.0833 375.75 42.75C378.583 36.9167 382.667 29.7917 388 21.375C389.583 20.7917 390.375 20.1667 390.375 19.5C390.875 18.3333 391.542 17.5833 392.375 17.25L394 17.375C395.25 16.9583 396.542 16.6667 397.875 16.5C403.542 17.25 406.375 18.125 406.375 19.125V19.25L406.625 48.5L406.375 56.625C406.792 60.0417 407.5 68.8333 408.5 83L408.25 84.375C408.917 84.7917 409.958 85 411.375 85C413.125 85.25 414 86.0417 414 87.375V88.125C414 93.625 413.667 96.375 413 96.375H412.75C411.417 95.7083 410.042 95.375 408.625 95.375H401.25C393.583 95.375 389.75 94.5833 389.75 93L390.125 89.875V89.375C390.125 89.0417 389.833 88.4583 389.25 87.625V86.875C389.25 86.4583 390.625 86 393.375 85.5L394.125 84.625L393.75 83.875V82C393.75 80.75 394.167 78.7083 395 75.875L395.5 75.25C394.917 74.5833 394.625 71.1667 394.625 65V57.375L394.75 53.625C394.417 52.7083 394.25 51.5 394.25 50V48.125C394.25 46.2917 394.5 43.75 395 40.5C395 39.5 395.417 38.1667 396.25 36.5L396.375 35.75C395.792 32.9167 395.5 30.875 395.5 29.625H395.125C393.708 31.0417 391.458 34.1667 388.375 39C384.875 45.5833 381.708 50.8333 378.875 54.75L373.875 61.875C373.375 62.625 372.667 63 371.75 63L370.25 62.375C369.417 62.5417 368.792 62.75 368.375 63C367.375 63 366.792 62.0417 366.625 60.125C365.708 58.2083 364.417 56.2917 362.75 54.375C361.417 52.7917 358.875 48.0417 355.125 40.125L353.75 37.625L352.125 34.75L352.25 34.625H353C353.417 34.625 353.75 35.1667 354 36.25L354.125 36.5H354.5V36C354.5 33.5 353.333 31.25 351 29.25H350.625V29.875H349.625V30.625L349.5 31.875V33.125C350.833 51.4583 351.5 67.2083 351.5 80.375C351.333 80.7917 351.042 81 350.625 81C350.292 81 350.125 80.5417 350.125 79.625L349.875 79.5H349.625L349.25 82.125C350.333 82.7083 350.875 83.4167 350.875 84.25L350.625 85.75C349.292 85.75 348.625 85.4583 348.625 84.875H348.25L347.875 85.5V86.125C347.875 86.4583 349.542 87 352.875 87.75H353.375C353.958 87.75 354.583 87.625 355.25 87.375C358.667 88.0417 360.375 88.6667 360.375 89.25V89.75L359.625 89.875C359.042 89.875 358.167 89.4167 357 88.5H356.375C354.375 88.75 353.375 89.0833 353.375 89.5C353.458 89.8333 353.75 90 354.25 90H356C358.5 90.25 359.75 90.7083 359.75 91.375L360 92.625V93.375C360 94.4583 359.125 95.0833 357.375 95.25C356.125 94.6667 354.833 94.375 353.5 94.375V94.5C353.5 94.75 353.917 94.875 354.75 94.875C355.833 95.125 356.375 95.375 356.375 95.625L355 95.75C352.5 95.75 347.5 95.2917 340 94.375L336.875 95.25C335.375 94.9167 334.625 94.2917 334.625 93.375V92.625C333.625 92.625 332.958 91.5833 332.625 89.5L332.5 89.25V88.625C333.417 86.9583 335.083 86.125 337.5 86.125C339.583 85.625 340.625 85.25 340.625 85V84.875L338.5 27L338.75 21.625L338.25 19.625C338.25 17.875 339.25 17 341.25 17ZM350.125 24.625C351.125 26.4583 352.75 28.625 355 31.125L359.625 40.375H360C360 38.9583 358.375 34.75 355.125 27.75C355.125 27.1667 354.292 26.125 352.625 24.625L352.375 23.875H351.625C350.625 23.9583 350.125 24.2083 350.125 24.625ZM348 63.875C347.833 64.375 347.75 64.9167 347.75 65.5V72.5L347.875 79.125L348 79.375H348.25C349.083 79.375 349.625 78.7917 349.875 77.625V76.875C349.542 76.875 349.292 76.4167 349.125 75.5L349.25 73.25V73.125C349.25 71.125 349.042 69.625 348.625 68.625L349 66.875C348.917 65.0417 348.583 64.0417 348 63.875ZM379.5 43L379.75 43.25C380.417 42.8333 381.292 41.375 382.375 38.875C383.125 38.125 383.792 36.6667 384.375 34.5V34.25L383.875 34C382.708 34 381.25 37 379.5 43ZM403.5 43C403.667 48.4167 404.042 51.25 404.625 51.5L404.875 51.25V47.25C404.875 44.0833 404.75 41.7083 404.5 40.125H404.125C403.708 40.125 403.5 41.0833 403.5 43ZM347.5 48.5C347.667 52.9167 347.958 55.125 348.375 55.125H348.625V53.5C348.625 50.9167 348.542 48.2917 348.375 45.625H348.25C347.917 45.625 347.667 46.5833 347.5 48.5ZM345.625 29.625H345L344.875 30.375V34.75C344.875 36.25 345.083 37 345.5 37C345.917 37 346.125 35.9167 346.125 33.75C346.125 32 345.958 30.625 345.625 29.625ZM404.875 75.25C404.375 75.75 404.125 76.7083 404.125 78.125V80L404.625 80.75H405.375C405.625 80.75 405.792 80.3333 405.875 79.5C405.542 76.6667 405.208 75.25 404.875 75.25ZM342.75 68.5L342.875 68.625C343.625 68.625 344 67.375 344 64.875V60.875L343.875 60.125C343.458 60.125 343.083 62.9167 342.75 68.5ZM340.875 23.125L340.75 23.25V23.375C341.083 27.2083 341.458 29.125 341.875 29.125C342.208 28.5417 342.375 27.7917 342.375 26.875V25.875C342.375 24.125 341.875 23.2083 340.875 23.125ZM334.625 87.625L334.125 88V88.625C334.125 89.2083 334.625 89.9167 335.625 90.75H335.875C336.125 90.75 336.292 90.4583 336.375 89.875C336.292 88.375 336.042 87.625 335.625 87.625H334.625ZM400.75 73.25H400.25C399.667 74.75 399.375 76.0833 399.375 77.25C399.625 78.25 399.917 78.75 400.25 78.75H400.5L400.75 73.5V73.25ZM344 21.625H343.875V22.375C344.458 25.4583 345.042 27 345.625 27H346V26.5L345.125 24.375C345.125 23.125 344.75 22.2083 344 21.625ZM342.875 77.625V79.625L343.375 79.875H343.625L344 77.125L343.875 76.25H343.625C343.292 76.25 343.042 76.7083 342.875 77.625ZM344.75 93.25L344 93.625C344.583 93.9583 345.292 94.125 346.125 94.125H346.5L347.75 93.875V93.375L344.75 93.25ZM392.75 22L392.875 22.125C393.125 22.125 393.708 21.5417 394.625 20.375V19.625H394.25C393.583 20.0417 393.083 20.8333 392.75 22ZM343.625 55.875H343.375V57V57.125C343.375 58.375 343.542 59 343.875 59L344.25 57.75C344.083 56.5 343.875 55.875 343.625 55.875ZM392.625 89L392.25 89.5V90L392.5 90.25L394.25 89.875V89.5C394.167 89.1667 393.875 89 393.375 89H392.625ZM342.125 40.375H341.625V43.5L342 43.75H342.125L342.375 41.75V41.375L342.125 40.375ZM373.5 53.625H373.125C372.625 54.375 372.375 54.9583 372.375 55.375V55.625H372.75C373.167 55.625 373.417 55.0833 373.5 54V53.625ZM349.625 93.875H348.75V94.125L350.25 94.5H352.25V94.125L349.625 93.875ZM347.25 20.25L346.5 20.375V20.75C346.5 20.9167 346.833 21.0833 347.5 21.25C348 21.0833 348.25 20.9167 348.25 20.75V20.5L347.875 20.25H347.25ZM391.25 24.625H391.5H391.625C392.125 24.0417 392.375 23.5417 392.375 23.125V22.875H392.25C391.583 23.2917 391.25 23.875 391.25 24.625ZM393.375 92.625L392.5 92.875V93.25L392.875 93.375H394.25V93.25C394.083 92.8333 393.792 92.625 393.375 92.625ZM405.375 82H404.25V82.25L404.875 83H405.125L405.75 82.5V82.25L405.375 82ZM351.5 21.25V21.375H352.875L353 21.25V21L352.875 20.75C352.042 20.75 351.583 20.9167 351.5 21.25ZM399.375 40.5V40.875L399.625 41.25C399.958 41.1667 400.125 40.875 400.125 40.375V39.625H399.875C399.542 39.7083 399.375 40 399.375 40.5ZM347.75 59.25V59.75L347.875 61.375H348.25V60.5C348.25 59.6667 348.083 59.25 347.75 59.25ZM349.125 83.25L348.75 83.5L349.125 83.875H349.625L349.875 83.5L349.625 83.25H349.125ZM396.875 82H396.5L396.375 82.75V83H396.75L396.875 82.625V82ZM401.875 83.375L401.375 83.875L401.625 84.25H402.375V83.875L401.875 83.375ZM399.375 44H399.125V44.5L399.375 45.25H399.625V44.375L399.375 44ZM399.875 38.25H400.125C400.375 38.0833 400.5 37.7083 400.5 37.125C400.083 37.2917 399.875 37.6667 399.875 38.25ZM401.125 67.25H400.75L400.625 67.625L401.125 68L401.375 67.625V67.5L401.125 67.25ZM401 80.75H400.25V81.25H400.625L401 80.875V80.75ZM336.375 92.5H335.875V92.875L336.125 93.25L336.375 93H336.5L336.375 92.5ZM340.625 20.375H340.25V20.75L340.5 21H340.625V20.375ZM342.75 82.5H342.5V83.125H342.875V82.75L342.75 82.5ZM449.5 35.875L453 36.875H454.125C458.875 39.2083 463.292 42 467.375 45.25C471.625 48.9167 473.75 51.6667 473.75 53.5H473.5C472.833 52.3333 472.167 51.75 471.5 51.75H471.375C471.125 51.75 471 51.9167 471 52.25C471.333 53.1667 472.083 54.75 473.25 57H473.5C473.667 57 473.875 56.5833 474.125 55.75H474.25C474.5 55.8333 474.792 57.0417 475.125 59.375L476.25 61.875L476 63.5L476.375 68C475.792 70.0833 475.25 72.8333 474.75 76.25C474.417 77.8333 470.542 83.75 463.125 94C459.792 97.1667 456.542 98.75 453.375 98.75C450.458 99.0833 447.167 99.25 443.5 99.25H441.125C439.708 99.25 436 98.0417 430 95.625C422.417 88.875 418.625 83.7083 418.625 80.125C417.542 77.875 416.625 75.7917 415.875 73.875C415.875 72.7917 417 69.2083 419.25 63.125C419.25 59.2917 420.167 56.625 422 55.125C425.917 46.7083 430.875 41.25 436.875 38.75C442.125 36.8333 446.333 35.875 449.5 35.875ZM427 75.125V75.875C428.167 78.125 429.458 80.5417 430.875 83.125C430.875 83.9583 432.458 85.125 435.625 86.625C437.125 88.375 439.917 89.75 444 90.75L446.25 91C449.917 90.25 452.667 89.4583 454.5 88.625L459 84.875C463.667 79.875 465.917 75.6667 465.75 72.25V71.125C465.25 69.7917 465 67.625 465 64.625C465 62.2917 465.167 60.4583 465.5 59.125C465.5 58.5417 463.875 57.0833 460.625 54.75C458.292 51.4167 455.875 49.375 453.375 48.625H451.875C442.125 49.0417 437.25 49.8333 437.25 51C435.083 53.1667 433.583 55.2917 432.75 57.375C430.083 60.2083 428.75 62.0833 428.75 63C428 66.4167 427.417 70.4583 427 75.125ZM430.875 44.875L430.5 45.5V46C431 46 433.542 44.25 438.125 40.75L439.125 40.375L439.875 40.5C445.458 39.9167 448.25 39.375 448.25 38.875V38.75L446.25 38.375C440.583 38.375 435.458 40.5417 430.875 44.875ZM440.625 47.5V47.625L440.875 48H442.625L451.5 46V45.75L449.125 45.25C443.458 45.9167 440.625 46.6667 440.625 47.5ZM421 78.625L420.5 79V79.875C420.667 82.7083 421.458 84.2917 422.875 84.625L423 84.5V84.375C422.417 80.5417 421.75 78.625 421 78.625ZM440.375 43.25V43.875C446.875 43.125 450.125 42.625 450.125 42.375L449.125 42H449C445 42 442.125 42.4167 440.375 43.25ZM451 38.5C451.417 39.6667 452.333 40.25 453.75 40.25L455 40.375L455.25 40.25V39.625C455.25 38.7083 454.375 38.1667 452.625 38C451.542 38.0833 451 38.25 451 38.5ZM428.25 91.25H427.375V91.75C428.458 92.8333 430.417 93.375 433.25 93.375H434.625C434.208 92.7917 432.083 92.0833 428.25 91.25ZM448.875 95.875V96.125C448.875 96.375 449.5 96.5833 450.75 96.75C452.167 96.75 452.875 96.5417 452.875 96.125V95.875C452.792 95.5417 452.5 95.2083 452 94.875H450.875C449.958 94.875 449.292 95.2083 448.875 95.875ZM472.625 72.125C472.708 74.625 472.917 75.9583 473.25 76.125H473.5C473.5 75.2083 473.875 74.2083 474.625 73.125V72.75L473.25 70.875H473C472.833 70.875 472.708 71.2917 472.625 72.125ZM464.375 50.625H463.875C464.375 51.7083 465.583 52.625 467.5 53.375H468L468.375 53V52.875C466.958 51.375 465.625 50.625 464.375 50.625ZM461.625 46.75V47C461.875 48 463.042 49.0417 465.125 50.125H465.5L465.75 49.75V49.625C465.333 49.0417 463.958 48.0833 461.625 46.75ZM453.375 42.625L453.125 42.75C454.708 44 455.958 44.625 456.875 44.625L457 44.375V44.25C455.667 43.1667 454.458 42.625 453.375 42.625ZM436.75 92.875V93.25C436.75 93.75 437.917 94 440.25 94L440.375 93.875V93.625C439.292 93.125 438.083 92.875 436.75 92.875ZM459.75 41.25L459.375 41.625C460.292 42.7917 461.208 43.375 462.125 43.375C462.125 42.4583 461.417 41.75 460 41.25H459.75ZM429.25 54.125V55H429.625C430.708 54 431.25 53.2083 431.25 52.625V52.5H430.625C430.125 52.8333 429.667 53.375 429.25 54.125ZM457.5 48.375C458 49.2083 458.583 49.625 459.25 49.625L459.375 49.375V49.125C459.375 48.375 459.042 48 458.375 48C457.792 48.0833 457.5 48.2083 457.5 48.375ZM469.625 81.25V81.375C470.292 81.375 470.875 80.7083 471.375 79.375V79.125H471C470.5 79.125 470.042 79.8333 469.625 81.25ZM431.875 47.625C432.625 47.625 433.333 47.125 434 46.125V45.75C432.583 46.1667 431.875 46.7917 431.875 47.625ZM471.625 79H472.25L472.75 79.375C472.833 78.0417 472.625 77.4583 472.125 77.625H471.875L471.75 76.75L471.625 79ZM455.625 96.75H455.75C457.25 96.25 458 95.8333 458 95.5L457.75 95.25C456.583 95.6667 455.875 96.1667 455.625 96.75ZM425.625 86.875L425.125 87.125V87.375L426.125 88.375H426.625C426.625 87.7917 426.292 87.2917 425.625 86.875ZM434.125 94.625V94.75H435.75L436 94.5L435.75 94.125H435.5C434.667 94.125 434.208 94.2917 434.125 94.625ZM474.625 63.25L474.25 63.625V64.125L474.625 64.625L475.125 64.125V63.625L474.75 63.25H474.625ZM421.75 59.25C422.167 59.25 422.542 58.9583 422.875 58.375V58.125C422.125 58.125 421.75 58.5 421.75 59.25ZM417.875 72.75L417.625 73.125C417.708 73.875 417.833 74.25 418 74.25L418.25 74.125V73.5L418 72.75H417.875ZM451.25 43.875V44L452.5 43L452.25 42.875C451.417 43.375 451.083 43.7083 451.25 43.875ZM424.25 55H424.375C424.708 54.9167 424.875 54.5833 424.875 54H424.625C424.375 54.1667 424.25 54.5 424.25 55ZM425 70L424.5 70.5V70.75H424.875L425.125 70.375V70H425ZM432.375 51.125H431.875V51.625H432.125L432.375 51.375V51.125ZM528 0.75L533.5 0.625C536.917 1.29167 538.625 1.79167 538.625 2.125C538.792 2.125 538.958 3.33333 539.125 5.75C540.042 6.83333 540.5 7.54167 540.5 7.875C540.083 11.875 539.708 20.0417 539.375 32.375C539.208 32.375 539.125 32.7917 539.125 33.625C538.458 34.0417 538.125 34.5 538.125 35V37C538.125 38.6667 537.708 40.5833 536.875 42.75L536.75 44.5C536.75 44.8333 537.208 45.0833 538.125 45.25V46.125C536.875 56.7083 536.25 63.625 536.25 66.875C536.25 70.7083 536 72.625 535.5 72.625V72.875C536 72.875 536.292 73.4167 536.375 74.5L536.25 75.375V75.875C536.25 77.4583 535.75 81.2917 534.75 87.375V90.25C538.917 91.1667 541 92.375 541 93.875L540.375 94.5V95.625L541 96.625C540.333 98.375 537.958 99.25 533.875 99.25H533.125L532.5 98.25H531.125L527.75 99L523 98.875C522.667 98.875 522.292 96.75 521.875 92.5L522.125 88.5C521.042 88.5 519.333 89.4167 517 91.25C510.083 95.0833 504 97.1667 498.75 97.5C493.917 96.25 489.583 93.8333 485.75 90.25C484.5 89 483.208 87.0417 481.875 84.375C480.375 82.2917 479.625 81.0417 479.625 80.625V80.125H480C480.583 80.5417 481.667 81.9583 483.25 84.375L483.875 84.5L484 84.375V82.75C484 81.0833 483.125 79.0833 481.375 76.75H480.75C480.25 76.75 479.958 77.5 479.875 79H479.5L479.25 78.375C479.417 75.125 479.542 73 479.625 72H480.375L480.5 73.125H480.75C481.167 72.9583 481.375 72.5417 481.375 71.875V69.5L481.125 69.125C480.875 69.125 480.75 69.4583 480.75 70.125L480 70.875C479.833 70.875 479.708 70.5833 479.625 70C479.625 63.75 481.667 57.0833 485.75 50C487.667 46.6667 489.583 44 491.5 42C494.167 39.5833 498.375 38.375 504.125 38.375H505.25C514.083 38.375 521.292 40.6667 526.875 45.25L527.75 45.75H528.125C528.875 42.0833 529.625 32.7917 530.375 17.875C530.792 17.2083 531.125 16.875 531.375 16.875C528.708 15.125 526.875 14.25 525.875 14.25C525.125 14.25 524.667 11.375 524.5 5.625C524.667 5.45833 525.333 5.33333 526.5 5.25V4.75C526.417 4.41667 526.083 4.25 525.5 4.25C525.083 4 524.875 3.70833 524.875 3.375C524.875 2.54167 525.833 2.125 527.75 2.125V1.625L527.25 1.125V0.875L528 0.75ZM528.125 6.125L528 6.5V6.625H529.5V6.5L529.125 6.125H528.125ZM535.125 7.375L534.875 7.75V7.875H536.75V7.5L535.875 7.375H535.125ZM531.25 9.75L531.5 10.125C533.5 10.0417 534.5 9.79167 534.5 9.375L534 9H532.5C531.917 9 531.5 9.25 531.25 9.75ZM528 9.25L527.75 9.625V9.875L528.625 10.125C529.125 10.125 529.417 9.95833 529.5 9.625L529.125 9.25H528ZM500.25 41.625L499.875 42.125V42.75L500.25 43H500.875L501.5 42.5V42.125L501 41.625H500.25ZM507.625 43L507.875 43.5H513.375V43C512.875 42.5 511.5 42.2083 509.25 42.125H508C507.75 42.2083 507.625 42.5 507.625 43ZM537.5 42.75V42.125H538.125V42.75H537.5ZM491.75 45.5V46L492 46.125H492.5C495.417 45.375 496.875 44.5 496.875 43.5C496.792 43.1667 496.375 43 495.625 43H495C493.75 43 492.667 43.8333 491.75 45.5ZM518.625 44.25L516.875 44.375H516.625V44.75C518.625 45.5833 519.917 46 520.5 46H520.625C520.625 45.1667 519.958 44.5833 518.625 44.25ZM530.75 44.875H530.25C530.25 45.7083 530.417 46.125 530.75 46.125L530.875 46V45.625L530.75 44.875ZM504.375 47.125L504.125 47.375L504.375 47.5H504.875L505.25 47.25V47.125H504.375ZM486.25 55.875V56.25H486.625C487.125 56.0833 487.667 55.125 488.25 53.375C490.75 49.875 492.417 48.125 493.25 48.125L493.75 47.25H493C492.667 47.25 491.292 48.0833 488.875 49.75C487.292 52.0833 486.417 54.125 486.25 55.875ZM500.25 48L500 48.375H501.25L501.625 48.125V48H500.25ZM506.75 48.625L507 48.75H507.25L510 48.375V48.125L509.125 48C507.542 48.0833 506.75 48.2917 506.75 48.625ZM513.375 48L513.125 48.375L513.5 48.75H514.25L514.5 48.375C514.333 48.125 514 48 513.5 48H513.375ZM519.125 48.125H518.625L519.125 48.625L519.375 48.375L519.125 48.125ZM521.875 48.875H520.5C520.5 49.2083 521.708 49.7083 524.125 50.375H524.25V50C523.583 49.25 522.792 48.875 521.875 48.875ZM487 73.25V75.125C487 76.2917 488.583 79.6667 491.75 85.25C494.083 86.5 496.583 87.125 499.25 87.125C505 87.125 510.583 85.75 516 83C518.25 79.5833 520.208 77.875 521.875 77.875C522.792 76.9583 523.792 73.8333 524.875 68.5C525.542 67 525.875 65.4583 525.875 63.875V62.625C525.875 59.125 525.417 57.375 524.5 57.375C522.583 55.625 521.625 54.5833 521.625 54.25L522.125 53.5C522.125 53.1667 520.917 52.6667 518.5 52L517.75 51.5L517.875 51.25H519.75V51.125C519.75 50.2917 515.208 49.8333 506.125 49.75L504.375 49.375C497.708 50.0417 494.375 50.9167 494.375 52C491.292 55.6667 489.292 60.1667 488.375 65.5C487.458 68.6667 487 71.25 487 73.25ZM523.5 53.5L523 54V55L523.625 55.625H524C524.333 55.5417 524.5 55.2083 524.5 54.625C524.5 54.125 524.25 53.75 523.75 53.5H523.5ZM485 67C485 67.25 485.125 67.375 485.375 67.375C485.958 67.375 486.375 66.5417 486.625 64.875V64.125H486.25C485.833 64.125 485.417 65.0833 485 67ZM524.75 85.875V86.625C525.25 86.625 525.5 87 525.5 87.75H525.75L526.375 87.125V86.125C526.042 85.875 525.875 85.4583 525.875 84.875H525.5C525 84.9583 524.75 85.2917 524.75 85.875ZM515.375 86.875V87.375H515.5C516.333 87.0417 517 86.5 517.5 85.75V85.5L517.25 85.25H517C516.417 85.5 515.875 86.0417 515.375 86.875ZM502.875 88.5V88.875H504.375C509.875 88.5417 512.917 87.75 513.5 86.5V86.125H513.125C506.708 87.2083 503.292 88 502.875 88.5ZM531.5 86.625H531.375L531.25 87.625V89.25L531.5 89.625H531.75L532 89.25V88C532 87.1667 531.833 86.7083 531.5 86.625ZM487.25 87.75H486.75V88.125C486.75 88.625 488.125 89 490.875 89.25V88.875C488.958 88.125 487.75 87.75 487.25 87.75ZM490.125 89.75L489.75 90C489.75 90.9167 492.208 91.8333 497.125 92.75H497.75L498 92.5V92.375C498 91.4583 495.625 90.5833 490.875 89.75H490.125ZM525.5 90.25L524.875 90.75V91H525.25L525.75 90.5V90.25H525.5ZM506 91.25V91.5L506.375 91.75H507.125C509.792 91.5833 511.125 91.3333 511.125 91L510.75 90.75H508.375C506.792 90.75 506 90.9167 506 91.25ZM532.375 91.125H531.75V91.5L532 91.75H532.625V91.5L532.375 91.125ZM497.625 94.875V95.25L497.75 95.625H499.375C500.708 95.625 502.667 95.3333 505.25 94.75V94.5L501.625 94.125C498.958 94.2917 497.625 94.5417 497.625 94.875ZM534.375 95.125C534.458 95.4583 534.875 95.625 535.625 95.625H538.125L539 95.375V95.125C539 94.875 538.5 94.6667 537.5 94.5C535.417 94.5833 534.375 94.7917 534.375 95.125ZM574.875 32.25C578.375 32.25 582.625 33.75 587.625 36.75C591.875 39.9167 594 42.0833 594 43.25C597.333 50.25 599 54.4583 599 55.875L599.125 56.875C597.875 59.7917 597.25 61.7917 597.25 62.875L596.5 63H585.875C584.875 63 583.667 63.125 582.25 63.375C570.25 62.375 561.833 61.875 557 61.875H554.375C553.375 63.375 552.875 64.4583 552.875 65.125C553.458 66.0417 553.75 67.5 553.75 69.5C553.75 72.6667 554.25 74.5417 555.25 75.125L555.375 75.75V75.875L554.625 75.5V75.875L555.75 77.125C555.75 78.2083 556.5 79.5833 558 81.25C560.75 86.0833 563.75 89.0833 567 90.25C569.75 91.1667 572.875 91.625 576.375 91.625C576.958 91.625 578.167 91.0833 580 90C581.5 89.6667 584.667 86.9583 589.5 81.875V81.5C589.5 81.3333 588.917 81.1667 587.75 81L587.5 80.375C589.417 76.7083 591.708 74.2917 594.375 73.125C595.125 73.875 596.667 75.0417 599 76.625C600.833 79.4583 603.292 82.7917 606.375 86.625V87.125C603.708 90.625 601.792 92.375 600.625 92.375H600.125C600.125 90.5417 599 89.5 596.75 89.25C596.333 89.25 594.5 90.625 591.25 93.375C589.333 94.875 586.042 96.2917 581.375 97.625C575.958 98.7083 572.125 99.25 569.875 99.25L562.75 96.75C558.75 96.75 555.083 94.5833 551.75 90.25C550.333 88.75 549.167 86.9583 548.25 84.875C548.25 84.2083 547.333 80.75 545.5 74.5C544.917 72.0833 544.625 69.75 544.625 67.5V67.375C544.625 56.2917 547.958 46.5833 554.625 38.25C555.458 36.1667 557.375 34.625 560.375 33.625C562.375 33.0417 564.792 32.5833 567.625 32.25C568.375 31.9167 570.792 31.9167 574.875 32.25ZM563.375 34.875V35H563.625C564.958 35 567.458 34.5417 571.125 33.625C571.875 33.5417 572.25 33.3333 572.25 33L571.875 32.625H571.75C569.333 32.625 566.625 33.2917 563.625 34.625L563.375 34.875ZM558.375 37V37.125L558.75 37.375H558.875C560.542 36.9583 561.375 36.5417 561.375 36.125V35.375L560.875 34.875H560.625C559.125 35.375 558.375 36.0833 558.375 37ZM577.625 35.75H573.875V36C573.875 36.3333 575.583 36.5833 579 36.75H579.125V36.25C579.125 36.0833 578.625 35.9167 577.625 35.75ZM568.75 37.625V37.75C568.75 38.0833 570.458 38.5 573.875 39L574.125 38.875V38.375C573.458 37.4583 572.333 37 570.75 37H570.375C569.292 37.0833 568.75 37.2917 568.75 37.625ZM576.375 38.375V38.5C581.125 41.25 583.667 42.625 584 42.625H584.125L585.375 42.125L586.125 42.375L586.25 42.125V42C585.917 41.75 585.208 41.5 584.125 41.25L581.625 40.125C580.958 38.7083 579.625 38 577.625 38H577.25C576.667 38.0833 576.375 38.2083 576.375 38.375ZM561.5 42C562.333 41.3333 564 40.625 566.5 39.875V39.625L566.375 39.375H565.125C562.708 40.0417 561.5 40.9167 561.5 42ZM554.875 50.25V50.625C554.875 51.5417 562.458 52.5833 577.625 53.75L578.875 54.125L580.5 54C583.833 55.0833 586.083 55.625 587.25 55.625C587.25 55.875 587.5 56.0833 588 56.25C588.5 55.5 588.75 54.7917 588.75 54.125V51.75C588.75 50.6667 586.667 48.25 582.5 44.5C580.583 42.5833 578.417 41.5 576 41.25L571.75 40.5C564.833 41.9167 560.292 43.625 558.125 45.625C557.208 47.375 556.125 48.9167 554.875 50.25ZM556.25 42.75V43H556.5C557.583 42.75 558.125 42.4583 558.125 42.125V42H557.5C557.083 42 556.667 42.25 556.25 42.75ZM586.125 44.5C586.292 45.1667 586.667 45.5 587.25 45.5H587.5L587.75 45.125V44.375L587.25 43.75C586.5 43.75 586.125 44 586.125 44.5ZM553.875 45.125L553.625 45.5V45.625H553.875L554.375 45.25V45.125H553.875ZM589.25 46.125H588.75C589.667 48.875 590.333 50.375 590.75 50.625H591.25L591.625 50.375C590.958 47.7083 590.25 46.375 589.5 46.375L589.25 46.125ZM555 48.375C555.5 48.2917 555.75 47.9583 555.75 47.375V47.25C555.25 47.4167 555 47.7917 555 48.375ZM593.5 51.75L593.125 52V52.875L593.5 53.375C593.833 53.2917 594 53 594 52.5V52L593.875 51.75H593.5ZM553.625 53.5V54L553.875 54.25H554.125C554.708 54 555.208 53.5417 555.625 52.875V52.5H555C554.5 52.5 554.042 52.8333 553.625 53.5ZM548.5 52.75C547.833 53.4167 547.25 55.0833 546.75 57.75H547C547.5 57.75 548.25 56.2917 549.25 53.375C549.083 52.9583 548.833 52.75 548.5 52.75ZM561.25 54.25V54.625C562.833 55.7083 565.708 56.25 569.875 56.25H571L572.625 56.125V55.625C569.208 54.875 565.417 54.4167 561.25 54.25ZM584.125 57.5H583.75V57.875H584.125V57.5ZM560 58.5V58.75C561.667 59.1667 566.083 59.5833 573.25 60V60.125V60.25L570.625 60.625C570.625 60.875 571.708 61 573.875 61C577.375 61 579.125 60.8333 579.125 60.5C579.125 59.6667 572.75 59 560 58.5ZM547.375 59.375H546.75V60.125C546.75 60.625 546.875 60.875 547.125 60.875C547.542 60.875 547.792 60.4583 547.875 59.625L547.375 59.375ZM557.5 59.625L556.875 59.75V60.5H557.5V60V59.75V59.625ZM553.5 60.625V60.75H553.625L555.75 60.5V60.25L555.375 59.75H555C554.25 59.75 553.75 60.0417 553.5 60.625ZM583.875 60.875C583.875 61.2083 584.625 61.375 586.125 61.375L587.25 61.25V61C587.25 60.6667 586.458 60.5 584.875 60.5C584.208 60.6667 583.875 60.7917 583.875 60.875ZM546.75 64.125V64.5V64.625C546.667 64.875 546.625 65.4583 546.625 66.375V66.875C546.625 68.375 547.042 69.7083 547.875 70.875H548C548 66.875 547.583 64.625 546.75 64.125ZM549 75H548.625V75.25L549 75.5H549.25V75.25L549 75ZM549.875 77.125L549.75 77.25V77.5C550.083 78.8333 550.583 79.5 551.25 79.5V79.375V79.125C551.25 78.4583 550.792 77.7917 549.875 77.125ZM590.625 78.25L590.875 78.625H591.5C592 78.625 592.292 78.4583 592.375 78.125L591.875 77.625H591.75C591.167 77.625 590.792 77.8333 590.625 78.25ZM587.75 85.5L588 85.625H588.125C589.042 85.625 589.625 85.0833 589.875 84V83.75C588.958 83.75 588.25 84.3333 587.75 85.5ZM596.5 85.25L596.625 85.375H597C597.5 85.0417 597.75 84.5833 597.75 84H597.375C596.792 84.3333 596.5 84.75 596.5 85.25ZM600.875 84H600.75V84.25C601 85.25 601.375 85.75 601.875 85.75H602L602.25 85.5V85.375C602.083 84.4583 601.625 84 600.875 84ZM593.625 86.625L594 86.875C595.25 86.4583 595.875 85.9167 595.875 85.25V85H595.75C594.583 85 593.875 85.5417 593.625 86.625ZM583.875 89.375H584.125C584.792 89.125 585.167 88.7083 585.25 88.125L585.125 88C584.292 88.5 583.875 88.9583 583.875 89.375ZM591.25 90H591.75C592.583 89.25 593 88.7083 593 88.375H592.875C591.792 88.7083 591.25 89.25 591.25 90ZM555.75 91.125H555.375V91.625C555.542 92.0417 556.25 92.5 557.5 93L558 93.375C557.083 91.9583 556.333 91.2083 555.75 91.125ZM564.5 91.625H564.375V91.75C564.375 92.0833 565.25 92.4583 567 92.875L567.125 92.75V92.5C566.042 91.9167 565.167 91.625 564.5 91.625ZM571.875 93H571.5V93.375H571.875V93ZM584.875 94.875C585.708 94.875 586.375 94.25 586.875 93H586.5C585.417 93.5833 584.875 94.2083 584.875 94.875ZM576.125 96.125L573.5 95.875H573C572.25 95.875 571.833 96.0417 571.75 96.375V96.625L572.25 97H574.5C577.083 97 580.125 96.5417 583.625 95.625C583.458 95.125 582.958 94.875 582.125 94.875H581.5C579.5 94.875 577.708 95.2917 576.125 96.125Z" fill="white"/>
</svg>
